<?xml version="1.0" encoding="UTF-8" standalone="no"?>
<!DOCTYPE svg PUBLIC "-//W3C//DTD SVG 1.1//EN" "http://www.w3.org/Graphics/SVG/1.1/DTD/svg11.dtd">
<svg xmlns="http://www.w3.org/2000/svg" version="1.1" viewBox="0.00 0.00 1024.00 1024.00">
<path fill="#ffffff" d="
  M 0.00 553.87
  L 0.00 550.03
  Q 0.48 549.39 0.00 549.25
  L 0.00 548.80
  L 0.00 509.28
  L 0.00 504.10
  L 0.00 489.64
  L 0.00 485.75
  L 0.00 458.00
  L 0.00 456.60
  L 0.00 443.28
  L 0.00 428.14
  Q 0.46 427.27 0.00 426.98
  L 0.00 426.62
  L 0.00 418.76
  L 0.00 408.60
  L 0.00 363.53
  L 0.00 360.59
  L 0.00 259.28
  L 0.00 257.85
  L 0.00 170.04
  L 0.00 162.58
  L 0.25 9.18
  A 0.15 0.14 -88.0 0 0 0.12 9.03
  Q 0.06 9.03 0.00 9.03
  L 0.00 8.14
  Q 0.52 7.30 0.00 7.24
  L 0.00 0.67
  Q 0.27 0.50 0.62 0.60
  A 0.50 0.50 0.0 0 1 0.99 1.08
  L 0.99 559.05
  A 0.13 0.12 -0.0 0 1 0.86 559.17
  L 0.58 559.17
  A 0.05 0.05 0.0 0 1 0.53 559.13
  L 0.00 553.87
  Z"
/>
<path fill="#ffffff" d="
  M 512.86 404.10
  Q 530.37 380.61 538.38 371.12
  Q 585.53 315.25 657.33 297.85
  Q 682.24 291.81 706.52 290.75
  Q 717.30 290.27 736.85 290.52
  A 0.60 0.60 0.0 0 1 737.44 291.09
  Q 738.15 302.87 738.38 317.75
  C 739.03 359.09 728.98 402.37 708.02 437.68
  C 688.68 470.29 661.79 496.64 629.71 515.68
  A 0.61 0.61 0.0 0 0 629.72 516.73
  C 682.72 547.69 721.36 599.71 733.47 659.77
  C 738.91 686.71 739.72 713.99 737.78 741.06
  A 0.38 0.38 0.0 0 1 737.41 741.41
  Q 723.20 741.85 712.25 741.62
  Q 673.00 740.82 635.79 728.73
  Q 578.13 710.01 539.10 664.36
  C 530.15 653.89 520.93 641.70 512.54 630.33
  A 0.25 0.25 0.0 0 0 512.14 630.33
  Q 501.20 645.91 488.41 661.15
  Q 449.44 707.61 391.76 727.80
  Q 370.35 735.29 348.99 738.46
  C 327.99 741.58 308.24 741.99 286.82 741.48
  A 0.52 0.51 88.8 0 1 286.32 740.99
  C 285.25 722.33 285.06 701.84 287.31 682.77
  Q 294.05 625.54 326.01 580.20
  Q 353.60 541.05 394.94 516.70
  A 0.46 0.46 0.0 0 0 394.95 515.91
  C 380.13 506.64 365.23 495.96 352.81 483.99
  C 318.19 450.63 295.56 407.19 288.51 359.41
  C 285.12 336.48 284.88 313.74 286.38 290.96
  A 0.48 0.48 0.0 0 1 286.85 290.50
  C 310.06 289.76 332.87 291.22 355.55 295.42
  Q 389.69 301.73 421.29 318.44
  Q 435.83 326.12 449.26 335.77
  C 465.44 347.39 479.95 362.57 492.18 377.91
  Q 495.62 382.23 512.07 404.10
  A 0.49 0.49 0.0 0 0 512.86 404.10
  Z
  M 406.54 493.26
  C 395.47 547.67 428.91 600.55 481.32 616.63
  C 542.10 635.27 604.41 598.33 617.07 536.10
  C 629.73 473.87 586.80 415.51 523.58 408.93
  C 469.05 403.25 417.61 438.86 406.54 493.26
  Z"
/>
<path fill="#ffffff" d="
  M 567.51 452.43
  Q 594.10 475.36 595.92 510.53
  C 597.66 544.05 579.45 576.42 548.78 590.81
  C 506.84 610.49 456.89 594.23 436.90 551.56
  C 413.95 502.55 440.94 445.55 494.39 434.14
  C 520.08 428.66 547.65 435.29 567.51 452.43
  Z"
/>
</svg>
